<svg style="; transform:scale(-1,1)" xmlns="http://www.w3.org/2000/svg" xmlns:xlink="http://www.w3.org/1999/xlink" version="1.1" x="0px" y="0px" viewBox="0 0 512 640" enable-background="new 0 0 512 512" xml:space="preserve"><g><g><g><g><g><path fill="white" d="M268.3,331.3l-87.6-87.6L294.3,68.5l149.2,149.2L268.3,331.3z M228.6,238.6l44.8,44.8l110.9-71.9l-83.8-83.8       L228.6,238.6z"/></g></g></g><g><circle fill="white" cx="77.9" cy="396.4" r="9.4"/></g><g><circle fill="white" cx="115.6" cy="434.1" r="9.4"/></g><g><circle fill="white" cx="190.5" cy="377.7" r="9.4"/></g><g><circle fill="white" cx="171.8" cy="434.1" r="9.4"/></g><g><circle fill="white" cx="115.6" cy="377.7" r="9.4"/></g><g><circle fill="white" cx="154.2" cy="340.2" r="9.4"/></g></g><g><g><g><path fill="white" d="M244.7,360.5c-7.3,7.3-19.2,7.3-26.5,0l-66.8-66.6c-7.3-7.3-7.3-19.2,0-26.5l0,0c7.3-7.3,19.2-7.3,26.5,0l66.8,66.6      C252,341.3,252,353.2,244.7,360.5L244.7,360.5z"/></g></g></g></g></svg>